<svg width="22" height="22" viewBox="0 0 22 22" fill="none" xmlns="http://www.w3.org/2000/svg">
<g clip-path="url(#clip0_28_103)">
<path d="M11.0348 0.0183105C4.96921 0.0183105 0.03479 4.95181 0.03479 11.0183C0.03479 17.0848 4.96921 22.0183 11.0348 22.0183C17.1004 22.0183 22.0348 17.0839 22.0348 11.0183C22.0348 4.95273 17.1004 0.0183105 11.0348 0.0183105ZM11.0348 20.185C5.98029 20.185 1.86812 16.0728 1.86812 11.0183C1.86812 5.96381 5.98029 1.85164 11.0348 1.85164C16.0893 1.85164 20.2015 5.96381 20.2015 11.0183C20.2015 16.0728 16.0893 20.185 11.0348 20.185ZM15.4027 7.25539L12.2338 11.0183L15.4027 14.7812C15.729 15.169 15.6795 15.7474 15.2927 16.0728C15.1204 16.2176 14.9105 16.2882 14.7024 16.2882C14.4411 16.2882 14.1817 16.1773 14.0002 15.9628L11.0348 12.441L8.06937 15.9628C7.88879 16.1773 7.62937 16.2882 7.36721 16.2882C7.15912 16.2882 6.94921 16.2176 6.77687 16.0728C6.39004 15.7474 6.33962 15.169 6.66687 14.7812L9.83579 11.0183L6.66687 7.25539C6.34054 6.86764 6.39004 6.28923 6.77687 5.96381C7.16462 5.63564 7.74396 5.68789 8.06846 6.07381L11.0339 9.59564L13.9993 6.07381C14.3238 5.68881 14.9031 5.63564 15.2909 5.96381C15.6777 6.28923 15.7281 6.86764 15.4009 7.25539H15.4027Z" fill="#8F8F8F"/>
</g>
<defs>
<clipPath id="clip0_28_103">
<rect width="22" height="22" fill="white"/>
</clipPath>
</defs>
</svg>
