<svg width="23" height="23" viewBox="0 0 23 23" fill="none" xmlns="http://www.w3.org/2000/svg">
<g clip-path="url(#clip0_7_7)">
<path d="M20.0204 2.43377H18.3489V0.760935C18.3489 0.537221 18.2505 0.324972 18.0798 0.180294C17.9092 0.0357167 17.6833 -0.0264767 17.463 0.0103523L2.85462 2.44411C2.48765 2.50529 2.21869 2.82265 2.21869 3.1947V22.2391C2.21869 22.6593 2.55938 23 2.97962 23H20.0203C20.4406 23 20.7812 22.6593 20.7812 22.2391V3.1947C20.7813 2.77446 20.4407 2.43377 20.0204 2.43377ZM3.74065 3.83936L16.827 1.65914V19.1619L3.74065 21.341V3.83936ZM19.2595 21.4781H12.1821L17.713 20.5571C18.0799 20.496 18.349 20.1786 18.349 19.8065V3.95563H19.2596L19.2595 21.4781Z" fill="white"/>
<path d="M14.0979 5.07318L6.23662 6.29067C5.82135 6.355 5.53687 6.74378 5.60109 7.15905C5.65933 7.53495 5.98328 7.80361 6.35208 7.80361C6.39073 7.80361 6.4301 7.80066 6.46946 7.79458L14.3307 6.57709C14.7461 6.51276 15.0305 6.12398 14.9663 5.70861C14.902 5.29345 14.5133 5.00886 14.0979 5.07318Z" fill="white"/>
</g>
<defs>
<clipPath id="clip0_7_7">
<rect width="23" height="23" fill="white"/>
</clipPath>
</defs>
</svg>
