<svg width="22" height="22" viewBox="0 0 22 22" fill="none" xmlns="http://www.w3.org/2000/svg">
<g clip-path="url(#clip0_28_112)">
<path d="M11 22C8.82441 22 6.69767 21.3549 4.88873 20.1462C3.07979 18.9375 1.66989 17.2195 0.83733 15.2095C0.00476615 13.1995 -0.213071 10.9878 0.211367 8.85401C0.635804 6.72022 1.68345 4.76021 3.22183 3.22183C4.76021 1.68345 6.72022 0.635804 8.85401 0.211367C10.9878 -0.213071 13.1995 0.00476615 15.2095 0.83733C17.2195 1.66989 18.9375 3.07979 20.1462 4.88873C21.3549 6.69767 22 8.82441 22 11C21.9968 13.9164 20.8369 16.7125 18.7747 18.7747C16.7125 20.8369 13.9164 21.9968 11 22ZM11 1.83334C9.18701 1.83334 7.41473 2.37095 5.90728 3.3782C4.39983 4.38545 3.22491 5.81708 2.53111 7.49207C1.83731 9.16706 1.65578 11.0102 2.00947 12.7883C2.36317 14.5665 3.23621 16.1998 4.51819 17.4818C5.80017 18.7638 7.43352 19.6368 9.21168 19.9905C10.9898 20.3442 12.8329 20.1627 14.5079 19.4689C16.1829 18.7751 17.6146 17.6002 18.6218 16.0927C19.6291 14.5853 20.1667 12.813 20.1667 11C20.164 8.56967 19.1974 6.23965 17.4789 4.52114C15.7604 2.80264 13.4303 1.83601 11 1.83334ZM5.74659 10.6333L10.4097 15.3578C10.4865 15.4366 10.5783 15.4991 10.6797 15.5418C10.7811 15.5845 10.89 15.6065 11 15.6065C11.11 15.6065 11.2189 15.5845 11.3203 15.5418C11.4217 15.4991 11.5135 15.4366 11.5903 15.3578L16.2534 10.6333C16.3706 10.5153 16.4505 10.3653 16.483 10.2022C16.5156 10.0391 16.4994 9.86994 16.4364 9.71595C16.3734 9.56197 16.2665 9.42994 16.129 9.33633C15.9915 9.24272 15.8294 9.19169 15.6631 9.18959H6.33692C6.17058 9.19169 6.00853 9.24272 5.87101 9.33633C5.73348 9.42994 5.62657 9.56197 5.56361 9.71595C5.50065 9.86994 5.48442 10.0391 5.51696 10.2022C5.5495 10.3653 5.62937 10.5153 5.74659 10.6333Z" fill="#FF0000"/>
</g>
<defs>
<clipPath id="clip0_28_112">
<rect width="22" height="22" fill="white"/>
</clipPath>
</defs>
</svg>
