<svg width="30" height="30" viewBox="0 0 30 30" fill="none" xmlns="http://www.w3.org/2000/svg">
<path fill-rule="evenodd" clip-rule="evenodd" d="M25.9091 0C28.1685 0 30 1.83157 30 4.09091V25.9091C30 28.1685 28.1685 30 25.9091 30H4.09091C1.83157 30 0 28.1685 0 25.9091V4.09091C0 1.83157 1.83157 0 4.09091 0H25.9091ZM25.9091 2.72727C26.6622 2.72727 27.2727 3.3378 27.2727 4.09091V25.9091C27.2727 26.6622 26.6622 27.2727 25.9091 27.2727H19.0909V17.7271H21.9221C22.509 17.7271 23.03 17.3516 23.2158 16.7947L23.8199 14.9824C24.0406 14.3201 23.5477 13.6362 22.8496 13.6362H19.0909V10.909C19.0909 10.2272 19.7727 9.54535 20.4545 9.54535H23.1818C23.935 9.54535 24.5455 8.93482 24.5455 8.18171V7.24627C24.5455 6.80579 24.2641 6.41086 23.8381 6.29846C22.0507 5.82675 20.4545 5.82675 20.4545 5.82675C17.0455 5.82675 15 8.18171 15 10.2272V13.6362H12.2727C11.5196 13.6362 10.9091 14.2467 10.9091 14.9999V16.3635C10.9091 17.1166 11.5196 17.7271 12.2727 17.7271H15V27.2727H4.09091C3.3378 27.2727 2.72727 26.6622 2.72727 25.9091V4.09091C2.72727 3.3378 3.3378 2.72727 4.09091 2.72727H25.9091Z" fill="#333333"/>
</svg>
