<svg width="22" height="22" viewBox="0 0 22 22" fill="none" xmlns="http://www.w3.org/2000/svg">
<g clip-path="url(#clip0_28_99)">
<path d="M21.5978 19.6581L17.3397 15.3983C20.5258 11.1406 19.6571 5.10614 15.3994 1.92007C11.1417 -1.26601 5.10724 -0.397272 1.92116 3.86044C-1.26491 8.11815 -0.396174 14.1526 3.86154 17.3386C7.28168 19.898 11.9792 19.898 15.3994 17.3386L19.6592 21.5985C20.1945 22.1338 21.0625 22.1338 21.5977 21.5985C22.1331 21.0632 22.1331 20.1952 21.5977 19.66L21.5978 19.6581ZM9.66595 16.5164C5.8819 16.5164 2.81436 13.4489 2.81436 9.66485C2.81436 5.8808 5.8819 2.81326 9.66595 2.81326C13.45 2.81326 16.5175 5.8808 16.5175 9.66485C16.5135 13.4472 13.4483 16.5124 9.66595 16.5164Z" fill="#8F8F8F"/>
</g>
<defs>
<clipPath id="clip0_28_99">
<rect width="22" height="22" fill="white"/>
</clipPath>
</defs>
</svg>
